<svg width="250" height="250" viewBox="0 0 250 250" fill="none" xmlns="http://www.w3.org/2000/svg">
<g filter="url(#filter0_d_7385_290)">
<rect x="25" y="20" width="200" height="200" rx="50" fill="white"/>
</g>
<path d="M133.818 169C129.861 170.618 126.121 173.979 121.575 173.12C117.435 171.797 113.603 168.915 109.071 169.347C105.946 169.38 103.431 171.364 100.929 172.969C97.8238 174.391 94.3852 173.166 91.503 171.789C88.7974 170.564 85.4897 169.496 82.8893 171.553C82.5751 171.147 81.9397 170.328 81.625 169.915C81.6305 169.909 81.635 169.903 81.6383 169.896C81.6537 169.877 81.6709 169.86 81.6897 169.844L81.7615 169.773C82.3313 169.255 84.5914 167.519 89.0653 168.573C89.6808 168.716 90.2866 168.898 90.8793 169.117C90.9044 169.123 90.9286 169.132 90.9517 169.143C91.003 169.163 91.0631 169.176 91.1154 169.202C91.1678 169.228 91.2268 169.242 91.2792 169.261C91.4234 169.32 91.5672 169.373 91.7047 169.418C91.7074 169.421 91.7105 169.423 91.714 169.424C91.7174 169.425 91.7211 169.425 91.7247 169.425C92.4434 169.726 93.1461 170.092 93.8662 170.375C96.0868 171.35 99.0213 171.986 100.993 170.179C104.452 167.617 108.945 166.34 113.177 167.458C116.124 168.172 118.777 169.698 121.595 170.746C125.804 171.729 129.134 168.349 132.815 166.967C133.647 167.356 133.778 168.175 133.818 169Z" fill="#525252"/>
<path d="M126.507 161.423C123.743 162.552 121.13 164.9 117.954 164.301C115.062 163.377 112.385 161.363 109.218 161.665C107.035 161.688 105.278 163.074 103.529 164.196C101.36 165.189 98.958 164.333 96.9443 163.374C95.0543 162.518 92.7434 161.772 90.9264 163.209C90.7067 162.926 90.2627 162.354 90.043 162.065C90.0467 162.061 90.0498 162.056 90.0522 162.051C90.0632 162.038 90.0756 162.026 90.0892 162.015C90.1025 162.001 90.121 161.983 90.1405 161.964C90.5383 161.602 92.1172 160.389 95.2427 161.126C95.6729 161.226 96.0963 161.353 96.5106 161.506C96.5284 161.51 96.5456 161.516 96.5619 161.524C96.6008 161.536 96.639 161.55 96.6764 161.565C96.7128 161.579 96.7539 161.593 96.7908 161.606C96.8935 161.648 96.9921 161.684 97.088 161.716C97.0899 161.718 97.092 161.719 97.0944 161.72C97.0968 161.721 97.0994 161.721 97.1019 161.721C97.6055 161.931 98.0951 162.188 98.5982 162.385C100.15 163.066 102.2 163.51 103.577 162.247C105.994 160.458 109.133 159.566 112.089 160.348C114.149 160.846 116.002 161.913 117.97 162.645C120.912 163.331 123.237 160.97 125.809 160.004C126.388 160.274 126.48 160.846 126.507 161.423Z" fill="#525252"/>
<path d="M95.9765 171.812C95.7843 171.729 95.5874 171.657 95.3867 171.596C95.438 171.616 95.4981 171.636 95.5505 171.655C95.6947 171.714 95.8389 171.767 95.9765 171.812Z" fill="#525252"/>
<path d="M146.093 109.904C146.092 107.907 145.299 105.992 143.887 104.581C142.476 103.169 140.561 102.376 138.564 102.375V110.32H146.093V109.904Z" fill="#525252"/>
<path d="M135.534 102.375C135.067 102.373 134.601 102.418 134.144 102.507C132.757 102.762 131.472 103.405 130.439 104.363C130.355 104.433 130.285 104.502 130.209 104.579C129.51 105.278 128.955 106.108 128.577 107.022C128.198 107.935 128.004 108.914 128.004 109.903V110.32H135.532L135.534 102.375Z" fill="#525252"/>
<path d="M146.093 112.934H138.564V120.462H146.093V112.934Z" fill="#525252"/>
<path d="M135.534 112.934H128.006V120.462H135.534V112.934Z" fill="#525252"/>
<path d="M195.062 146.541C191.112 140.437 184.313 137.056 177.579 134.949C177.638 125.851 177.618 116.753 177.612 107.655C177.796 104.386 176.04 101.17 173.067 99.7353C160.791 93.1394 148.568 86.4254 136.228 79.9408L135.579 79.5933L129.396 76.2466L126.736 74.8119L126.634 74.7529C123.837 73.1021 121.09 71.2624 117.935 70.7378C117.33 70.6365 116.712 70.6539 116.114 70.7892C113.507 71.3718 111.168 72.7017 108.837 74.0774C112.138 70.4288 116.036 67.311 120.529 65.3132C120.575 64.9134 120.667 64.1075 120.712 63.7082C119.599 63.3021 118.454 62.8894 117.241 63.027C111.925 63.2543 106.742 64.7573 102.129 67.4091C101.808 67.6144 101.488 67.8197 101.18 68.0379C100.482 68.5323 99.8125 69.0659 99.1751 69.6363C97.8533 70.821 96.6711 72.1527 95.6513 73.6056C94.4594 75.2916 93.47 77.112 92.7034 79.0292C92.2196 80.2128 91.8147 81.4272 91.4915 82.6644C88.5046 73.7299 80.0028 66.9769 70.5637 66.3542C70.4066 66.3347 70.249 66.328 70.092 66.3219C68.6249 66.0139 67.1379 65.942 65.6575 66.0006C63.8302 66.0663 62.009 66.3219 60.2078 66.5708C60.1159 67.1355 59.9394 68.2473 59.8485 68.8042C61.4599 69.2297 63.0296 69.7997 64.5385 70.5074C65.2721 70.8543 65.9861 71.226 66.6867 71.6341C67.3874 72.0421 68.069 72.4856 68.7307 72.9573C71.2654 74.5029 73.6173 76.3503 75.7588 78.4132C76.1849 78.8131 76.6042 79.2258 77.0102 79.6513C77.5015 80.4048 78.1431 80.3263 78.7 79.9593C79.1061 79.6908 79.4664 79.2648 79.702 78.8983C79.0118 78.0235 78.2588 77.2 77.4491 76.4345C75.6213 74.679 73.5516 73.1591 71.5461 71.6264C71.5294 71.6177 71.514 71.6066 71.5005 71.5935C70.1443 70.5156 68.3626 69.9561 67.2298 68.6266C67.256 68.5152 67.2811 68.3972 67.315 68.2858C67.9438 68.3448 68.5787 68.4167 69.2209 68.5086C70.3409 68.6656 71.4676 68.8751 72.5748 69.1373C76.7993 70.146 80.8148 71.9934 83.8279 75.1943C86.5997 77.69 88.0329 81.1615 89.4547 84.5282C89.6118 84.8875 89.7627 85.2468 89.9198 85.6025C89.3552 86.2698 88.6365 87.0911 87.7126 86.3494L86.9267 85.9388C84.5753 84.753 82.0534 83.8424 79.4659 83.3055C78.6733 83.1351 77.8675 82.9975 77.0621 82.9057C75.6669 82.7378 74.2602 82.6875 72.8566 82.7552C72.66 82.7619 72.4573 82.7748 72.2607 82.7881C71.0909 82.8726 69.9299 83.0521 68.7892 83.325C67.601 83.6038 66.4394 83.9852 65.3172 84.4651C65.0883 84.5677 64.8588 84.6745 64.6299 84.7859C62.4765 85.7948 60.442 87.0404 58.5642 88.4996C57.9483 88.978 57.3523 89.4749 56.7825 90C54.9418 91.6703 53.3172 93.5633 52.0006 95.6525C51.9616 97.2381 53.7494 97.1924 54.7124 96.5893C56.7302 95.5873 58.885 94.9323 61.0773 94.4472C61.95 94.2507 62.8328 94.0808 63.7106 93.9298C63.8415 93.9037 63.9724 93.8785 64.1038 93.858C65.5924 93.6527 67.0907 93.4386 68.5905 93.3077C68.8919 93.2815 69.1865 93.2564 69.4811 93.2359C70.7387 93.1507 71.9963 93.144 73.2477 93.2749C73.372 93.2815 73.5044 93.301 73.6276 93.3144C73.7846 93.3272 73.9356 93.3467 74.0926 93.3729C74.1188 93.203 74.1583 92.9931 74.1953 92.7641C74.3134 92.122 74.4576 91.3228 74.5428 90.8516C73.5735 90.7302 72.598 90.6645 71.6211 90.655C70.0232 90.6221 68.4181 90.7268 66.8263 90.8906C66.7021 90.8972 66.5774 90.9101 66.4598 90.9234C65.8505 90.9891 65.2413 91.0543 64.6386 91.1329C63.6411 91.2537 62.6522 91.4375 61.6779 91.6831C60.833 91.8884 59.9881 92.1287 59.1561 92.3971C58.5206 92.6024 57.8851 92.8165 57.2568 93.0326C57.7157 92.6394 58.1741 92.2467 58.6392 91.8602C59.2351 91.3623 59.8444 90.8711 60.4598 90.3927C61.6456 89.4759 62.8837 88.6243 64.2003 87.9037C65.2537 87.3487 66.3513 86.882 67.4818 86.5085C68.4478 86.1886 69.4351 85.9368 70.4364 85.755C71.3645 85.5797 72.3031 85.466 73.2462 85.4147C73.508 85.3952 73.7703 85.3885 74.0321 85.3818C75.2163 85.3552 76.4007 85.4239 77.5739 85.5871C79.7648 85.8883 81.8978 86.5177 83.9013 87.454C83.9328 87.4717 83.9656 87.4869 83.9994 87.4997C84.6939 87.859 85.8796 88.207 86.3641 88.823C86.6326 89.17 86.6788 89.6022 86.2856 90.172C84.6287 90.5195 82.3491 91.2791 80.764 91.8946C80.7573 91.8946 80.7573 91.8946 80.7507 91.9013H80.744L80.6588 91.9213C80.1614 92.1174 79.6635 92.3402 79.1784 92.5696C78.7791 92.7595 78.3859 92.9561 77.9978 93.1655C77.0266 93.6812 76.0882 94.2565 75.188 94.8882L74.8287 95.0781C74.8354 95.0914 74.8482 95.1043 74.8549 95.1176C74.2389 95.5632 73.6368 96.0282 73.0665 96.5261C72.8048 96.7422 72.543 96.9712 72.294 97.2134C70.8608 98.525 69.5997 100.013 68.5408 101.642C67.8155 102.755 67.1927 103.933 66.68 105.159C66.3397 106.017 66.0451 106.895 65.7895 107.786C65.5667 108.532 65.3788 109.286 65.2197 110.052C65.0359 110.91 64.8922 111.775 64.7808 112.653C64.7413 112.954 64.7084 113.255 64.6823 113.563C64.5351 115.025 64.4891 116.496 64.5447 117.965C64.5776 118.718 64.6299 119.471 64.7084 120.218C64.7808 120.885 64.8722 121.548 64.9836 122.209C65.6476 122.179 66.3086 122.103 66.9618 121.98C67.2041 121.364 67.4531 120.748 67.7282 120.146C67.9248 119.687 68.1342 119.236 68.3503 118.783C68.5274 118.456 68.7045 118.128 68.8878 117.801C69.412 116.858 69.973 115.934 70.5709 115.029C70.8332 114.63 71.1016 114.237 71.3834 113.844C71.6452 113.464 71.9203 113.09 72.2021 112.717C72.6672 112.095 73.1456 111.485 73.6497 110.889C74.8152 109.488 76.0666 108.16 77.3968 106.913C78.0127 106.324 78.6482 105.767 79.296 105.237C79.4531 105.093 79.6106 104.962 79.7677 104.837C81.168 103.69 82.6427 102.638 84.1821 101.686C84.3787 101.555 84.5748 101.43 84.778 101.313C85.9899 100.455 84.5163 98.123 83.2648 99.145C83.2416 99.16 83.2197 99.1772 83.1996 99.1963C81.3357 100.279 79.5692 101.522 77.9198 102.91C77.501 103.251 77.0944 103.605 76.6951 103.972C76.0858 104.508 75.4965 105.072 74.9267 105.649C73.6152 106.963 72.3754 108.347 71.2125 109.794C70.7213 110.41 70.2372 111.033 69.765 111.668C69.3718 112.199 68.9853 112.736 68.6054 113.273C68.1994 113.194 67.7841 113.122 67.3807 113.05C67.4988 112.336 67.6163 111.622 67.7605 110.908C67.9109 110.148 68.0814 109.388 68.2913 108.642C68.7887 106.84 69.4899 105.104 70.5971 103.539C70.6622 103.428 70.7279 103.317 70.8024 103.205C71.1944 102.542 71.63 101.905 72.1062 101.299C72.7259 100.504 73.4069 99.76 74.1429 99.0721C74.4314 98.797 74.7327 98.528 75.0469 98.2729C75.4401 97.9387 75.8527 97.6241 76.2721 97.3166C77.2449 96.6207 78.2672 95.9967 79.3309 95.4497C79.4751 95.3712 79.6188 95.2988 79.7698 95.2269C80.4371 94.8995 81.1254 94.5982 81.8265 94.323C83.3827 93.7171 84.9894 93.2502 86.628 92.9279C87.5776 93.5305 88.2326 94.4678 88.9532 95.2988C88.8614 95.6001 88.7762 95.9081 88.691 96.2094C88.1534 98.1494 87.7465 100.123 87.4729 102.118C87.2341 103.836 87.0831 105.565 87.0207 107.299C86.9693 108.904 86.9878 110.515 87.0797 112.114C87.1935 114.3 87.4319 116.478 87.7937 118.638C87.9446 119.574 88.1145 120.511 88.3111 121.441C88.5075 122.384 88.7238 123.321 88.9599 124.251C89.176 125.142 89.4183 126.026 89.6739 126.904C89.7586 127.192 89.8438 127.474 89.9306 127.755C90.1138 128.345 90.2976 128.936 90.4952 129.518C90.5214 129.616 90.5537 129.708 90.5866 129.799C90.5999 129.845 90.6194 129.891 90.6328 129.936C90.849 130.611 91.0783 131.279 91.3206 131.938C93.5791 138.299 96.7046 144.318 100.183 150.096C87.6915 157.36 76.0386 166.124 62.7481 171.934C61.3725 172.917 58.8311 172.465 59.1037 170.375C58.9661 160.583 59.1037 150.777 59.0524 140.971V106.081H58.8753C59.694 102.517 63.2774 101.246 66.1724 99.7794L68.3929 98.5742L71.8187 96.714L72.736 96.2161C72.2838 95.8101 71.8382 95.3974 71.3932 94.9842C71.3682 94.9656 71.3461 94.9434 71.3275 94.9185C71.324 94.9146 71.3193 94.9123 71.3141 94.9118C71.1771 94.7876 71.039 94.6551 70.9035 94.5319L70.7336 94.6238L70.6941 94.6433L70.1294 94.9513L66.5071 96.8967L64.306 98.0773C60.8084 99.6686 57.1711 101.902 56.57 106.082L56.5901 108.479L56.6162 112.2V112.415L56.6424 116.247L56.6619 118.52L56.7338 129.217L56.7928 129.518C56.7867 131.398 56.7867 133.278 56.8062 135.158C56.7995 135.164 56.7867 135.171 56.78 135.177L56.7995 138.387C56.7405 138.438 56.6753 138.49 56.6162 138.544C56.6753 138.544 56.7405 138.551 56.7995 138.551L56.819 140.974C56.7538 150.223 56.8257 159.466 56.7733 168.721C56.8323 170.372 56.6229 172.376 58.0504 173.575C59.385 174.989 61.5614 175.016 63.2383 174.217C76.8367 168.433 88.6535 159.426 101.374 152.057C102.134 151.618 102.894 151.186 103.653 150.76C103.247 150.112 102.841 149.463 102.442 148.81C99.1859 143.438 96.3104 137.779 94.1032 131.903C93.2912 129.755 92.5794 127.576 91.9679 125.366C91.7579 124.626 91.5618 123.877 91.3848 123.133C91.1493 122.17 90.9332 121.2 90.7365 120.224C90.4547 118.783 90.2124 117.335 90.0225 115.875V115.855C90.0158 115.828 90.0158 115.803 90.0091 115.769C90.004 115.75 90.0019 115.73 90.0029 115.71C89.9516 115.271 89.9003 114.833 89.852 114.387C89.7211 113.117 89.6293 111.839 89.5836 110.549C89.5441 109.795 89.5322 109.036 89.5322 108.276C89.5953 107.57 89.6062 106.861 89.5651 106.154V106.127C89.7088 102.695 90.0887 100.317 90.0887 100.317L90.102 100.272C90.2524 100.062 90.3248 100.049 90.0887 100.317C90.0887 100.553 90.0953 100.789 90.1087 101.025C90.3376 107.294 93.1808 114.853 95.7088 120.518C95.8115 120.734 95.9054 120.951 96.004 121.161C96.5804 122.287 97.1892 123.401 97.818 124.501C100.196 128.68 102.914 132.656 105.888 136.442C107.899 138.997 110.021 141.462 112.253 143.837C112.818 144.446 113.386 145.042 113.976 145.638C114.237 145.912 114.506 146.187 114.781 146.464C124.856 158.143 137.53 167.969 152.281 172.855C161.923 175.999 172.62 177.414 182.419 174.106C187.541 172.344 192.781 169.64 195.768 164.923C199.293 159.383 198.802 151.86 195.062 146.541ZM67.8961 114.321C67.5752 114.786 67.2673 115.264 66.9593 115.735C67.0445 115.212 67.1297 114.681 67.2082 114.15C67.4372 114.203 67.6666 114.263 67.8961 114.321ZM89.9378 92.469C87.5663 90.6088 90.8222 86.6266 93.036 88.9713C93.0911 89.0165 93.1414 89.0671 93.1864 89.1223C93.8414 89.7772 93.9266 90.5764 93.6777 91.2838C93.1798 92.6856 91.3396 93.7071 89.9378 92.469ZM192.278 165.696C188.407 169.731 182.984 171.742 177.678 173.092C177.566 161.963 177.586 150.827 177.665 139.698C177.088 139.522 175.942 139.155 175.359 138.972C175.3 150.48 175.45 161.995 175.293 173.511C162.612 174.677 149.957 170.72 139.105 164.281C139.099 164.281 139.092 164.278 139.086 164.275C138.3 163.804 137.526 163.325 136.76 162.834C130.033 158.439 123.882 153.153 118.487 147.192L118.48 147.185C118.166 146.858 108.137 136.279 108.229 135.218C107.338 134.111 106.474 132.991 105.642 131.845C102.831 128.026 100.316 124.004 98.2399 119.74C97.5726 118.377 96.9495 116.982 96.3797 115.568C94.6437 111.192 93.17 106.528 92.6593 101.805C92.4792 100.236 92.42 98.6546 92.4822 97.0759C92.5017 96.5261 92.5412 95.9759 92.6003 95.4333C93.3533 95.3024 93.9954 95.0078 94.5195 94.5756C95.2663 93.9858 95.7966 93.1383 96.1374 92.1631C96.1636 92.1631 96.1965 92.1697 96.2226 92.1697C96.9464 92.2181 97.6638 92.3365 98.3646 92.5234C98.7573 92.6261 99.1346 92.7457 99.517 92.8827C100.128 93.0958 100.728 93.3408 101.314 93.6167C102.032 93.9442 102.735 94.3045 103.429 94.6777C103.816 94.883 104.196 95.0884 104.569 95.2937C104.615 95.3204 104.654 95.345 104.7 95.3727C105.375 95.7755 106.025 96.2195 106.645 96.7022C107.065 97.0297 107.471 97.3695 107.857 97.7288C108.185 98.0234 108.499 98.3247 108.801 98.6455C109.115 98.973 109.423 99.3128 109.711 99.6609C110.208 100.247 110.671 100.862 111.097 101.502C113.206 104.619 114.53 108.287 114.995 112.041C115.107 112.903 115.17 113.771 115.185 114.641C114.805 114.025 114.411 113.409 114.012 112.801C112.112 109.926 109.964 107.167 107.54 104.711C106.046 103.19 104.432 101.793 102.713 100.532C102.293 100.224 101.861 99.9293 101.422 99.6413C100.735 99.1825 100.036 98.7503 99.3132 98.3442C98.822 97.8792 98.2389 97.9711 97.7933 98.2986C97.1317 98.7965 96.8042 99.8385 97.6429 100.388C98.7234 101.03 99.7783 101.718 100.794 102.458C101.173 102.726 101.547 103.008 101.914 103.296C103.293 104.37 104.606 105.527 105.844 106.761C108.35 109.263 110.532 112.069 112.341 115.113C112.99 116.187 113.579 117.288 114.123 118.414C114.51 119.22 114.87 120.045 115.204 120.878C115.296 121.114 115.387 121.343 115.479 121.579C115.964 121.415 116.94 121.088 117.43 120.931C117.43 120.911 117.436 120.898 117.436 120.879C117.561 120.067 117.659 119.242 117.724 118.415C117.925 115.96 117.851 113.491 117.502 111.053C116.932 107.136 115.609 103.35 113.401 100.055C113.179 99.7209 112.942 99.3934 112.7 99.0659C112.484 98.7775 112.268 98.4962 112.038 98.221C111.534 97.6043 110.996 97.016 110.427 96.4589C110.178 96.2166 109.929 95.9872 109.674 95.7644C109.102 95.2454 108.501 94.7598 107.873 94.3102C107.244 93.8407 106.59 93.4056 105.914 93.0069C105.384 92.6861 104.833 92.3848 104.283 92.103C103.602 91.756 102.908 91.4413 102.2 91.1467C101.29 90.773 100.352 90.4455 99.4097 90.1643C99.1086 90.0725 98.8073 89.987 98.5058 89.9076C97.818 89.7177 97.1199 89.5606 96.4228 89.4231C96.2657 89.1541 95.9316 88.6367 95.7678 88.3682C96.6784 87.838 97.6157 87.3267 98.5782 86.8488L99.2265 86.5342C100.524 85.9138 101.861 85.3822 103.23 84.9429C103.99 84.714 104.75 84.5107 105.523 84.3537C107.71 83.8886 109.951 83.7706 112.204 84.1376C112.717 84.1889 113.219 84.2618 113.717 84.3598C114.735 84.5508 115.734 84.8292 116.704 85.1919C119.704 86.2729 122.453 88.0479 124.951 90.0524C124.781 90.2161 124.61 90.3732 124.44 90.5302C122.239 89.9276 119.985 89.574 117.706 89.384L117.142 89.345C115.314 89.2075 113.467 89.1746 111.633 89.2008C110.847 89.2075 110.067 89.227 109.282 89.2521C109.196 90.1299 109.118 91.0143 109.046 91.8915C109.17 91.8854 109.303 91.8854 109.426 91.8787C110.906 91.8197 112.387 91.7807 113.874 91.7868C114.221 91.7868 114.561 91.7935 114.908 91.8001C117.326 91.8458 119.742 92.0358 122.107 92.5142C122.985 92.6907 123.849 92.9007 124.714 93.1625C124.773 93.182 124.838 93.1953 124.897 93.2138C127.026 93.8297 129.004 94.9431 131.225 95.2182C131.251 94.6813 131.303 93.607 131.343 93.0624C130.445 91.907 129.476 90.8088 128.441 89.7741C128.375 89.7084 128.31 89.6427 128.251 89.5842C128.022 89.3481 127.832 89.1649 127.622 88.9749L127.583 88.9354C127.465 88.8328 127.347 88.7193 127.229 88.6146L127.024 88.4313C127.004 88.418 126.991 88.3985 126.972 88.3852C126.94 88.359 126.907 88.3266 126.87 88.2938C126.839 88.2613 126.806 88.2306 126.772 88.2019L126.765 88.2086C124.689 86.412 122.186 84.6909 119.757 83.5447C118.828 83.1057 117.871 82.7271 116.894 82.4113C114.789 81.7153 112.591 81.3421 110.375 81.3047C108.721 81.22 107.063 81.3342 105.436 81.645C104.645 81.7911 103.863 81.977 103.091 82.2019C101.687 82.6099 100.315 83.12 98.9847 83.728C98.8471 83.787 98.7163 83.8527 98.5787 83.9117C97.3668 84.4815 96.1744 85.117 95.0215 85.7914C94.5369 86.0799 94.0524 86.3679 93.5807 86.6692C93.7107 84.651 94.1276 82.6617 94.8187 80.7611C95.936 77.6508 97.7234 74.8242 100.054 72.4815C100.648 71.8886 101.276 71.3309 101.934 70.8112C103.21 69.7975 104.606 68.9459 106.092 68.276C108.725 66.9137 111.744 66.6714 114.456 65.5119C114.312 65.8327 114.188 66.1792 113.84 66.3501C109.857 68.9166 106.563 72.383 103.694 76.1496C103.248 76.7388 102.809 77.3302 102.384 77.9312C103.117 78.4353 103.851 78.9532 104.571 79.464C104.722 79.2412 104.879 79.0184 105.043 78.8023C105.07 78.7505 105.103 78.702 105.141 78.6581C108.672 77.0602 111.875 74.643 115.51 73.3392C116.524 72.9797 117.627 72.9591 118.654 73.2807C118.929 73.3654 119.198 73.4573 119.466 73.562L126.442 77.2958L131.316 79.8962L132.207 80.3746L134.388 81.5403C146.217 87.763 157.91 94.2476 169.726 100.503C172.254 101.735 175.287 103.49 175.274 106.7C175.484 115.929 175.287 125.171 175.359 134.407C163.464 131.983 151.117 132.514 139.228 134.696C131.597 136.229 123.986 138.298 117.029 141.831C118.628 144.045 120.848 142.459 122.774 141.779C134.302 137.22 146.735 135.151 159.108 135.079C167.493 135.13 176.132 136.087 183.737 139.834C188.511 142.173 192.771 145.965 194.814 150.963C196.909 155.81 195.933 161.843 192.278 165.696Z" fill="#525252"/>
<defs>
<filter id="filter0_d_7385_290" x="0" y="0" width="250" height="250" filterUnits="userSpaceOnUse" color-interpolation-filters="sRGB">
<feFlood flood-opacity="0" result="BackgroundImageFix"/>
<feColorMatrix in="SourceAlpha" type="matrix" values="0 0 0 0 0 0 0 0 0 0 0 0 0 0 0 0 0 0 127 0" result="hardAlpha"/>
<feOffset dy="5"/>
<feGaussianBlur stdDeviation="12.5"/>
<feComposite in2="hardAlpha" operator="out"/>
<feColorMatrix type="matrix" values="0 0 0 0 0 0 0 0 0 0 0 0 0 0 0 0 0 0 0.15 0"/>
<feBlend mode="normal" in2="BackgroundImageFix" result="effect1_dropShadow_7385_290"/>
<feBlend mode="normal" in="SourceGraphic" in2="effect1_dropShadow_7385_290" result="shape"/>
</filter>
</defs>
</svg>
